<svg width="46" height="45" viewBox="0 0 46 45" fill="none" xmlns="http://www.w3.org/2000/svg">
<path fill-rule="evenodd" clip-rule="evenodd" d="M7.5 0C3.63401 0 0.5 3.13401 0.5 7V38C0.5 41.866 3.63401 45 7.5 45H38.5C42.366 45 45.5 41.866 45.5 38V7C45.5 3.13401 42.366 0 38.5 0H7.5ZM22.7843 13.6439L15.0575 20.5366C14.372 21.1481 14.8046 22.2828 15.7232 22.2828H16.15C16.7023 22.2828 17.15 22.7305 17.15 23.2828V29.6C17.15 30.1523 17.5977 30.6 18.15 30.6H28.75C29.3023 30.6 29.75 30.1523 29.75 29.6V23.2828C29.75 22.7305 30.1977 22.2828 30.75 22.2828H31.1768C32.0954 22.2828 32.528 21.1481 31.8425 20.5366L24.1157 13.6439C23.7364 13.3055 23.1636 13.3055 22.7843 13.6439Z" fill="#131313"/>
</svg>
